TITLE ""
FILE "Step1_Track44.mp3" MP3
  TRACK 01 AUDIO
    TITLE "Step1_Track44_01"
    INDEX 01 00:00:00
  TRACK 02 AUDIO
    TITLE "Step1_Track44_02"
    INDEX 01 00:00:22
  TRACK 03 AUDIO
    TITLE "Step1_Track44_03"
    INDEX 01 00:02:03
  TRACK 04 AUDIO
    TITLE "Step1_Track44_04"
    INDEX 01 00:02:60
  TRACK 05 AUDIO
    TITLE "Step1_Track44_05"
    INDEX 01 00:03:58
  TRACK 06 AUDIO
    TITLE "Step1_Track44_06"
    INDEX 01 00:03:71
  TRACK 07 AUDIO
    TITLE "Step1_Track44_07"
    INDEX 01 00:05:49
  TRACK 08 AUDIO
    TITLE "Step1_Track44_08"
    INDEX 01 00:06:09
  TRACK 09 AUDIO
    TITLE "Step1_Track44_09"
    INDEX 01 00:07:06
  TRACK 10 AUDIO
    TITLE "Step1_Track44_10"
    INDEX 01 00:07:16
  TRACK 11 AUDIO
    TITLE "Step1_Track44_11"
    INDEX 01 00:08:69
  TRACK 12 AUDIO
    TITLE "Step1_Track44_12"
    INDEX 01 00:09:31
  TRACK 13 AUDIO
    TITLE "Step1_Track44_13"
    INDEX 01 00:10:22
  TRACK 14 AUDIO
    TITLE "Step1_Track44_14"
    INDEX 01 00:10:34
  TRACK 15 AUDIO
    TITLE "Step1_Track44_15"
    INDEX 01 00:12:61
  TRACK 16 AUDIO
    TITLE "Step1_Track44_16"
    INDEX 01 00:13:17
  TRACK 17 AUDIO
    TITLE "Step1_Track44_17"
    INDEX 01 00:14:12
  TRACK 18 AUDIO
    TITLE "Step1_Track44_18"
    INDEX 01 00:14:26
  TRACK 19 AUDIO
    TITLE "Step1_Track44_19"
    INDEX 01 00:16:21
  TRACK 20 AUDIO
    TITLE "Step1_Track44_20"
    INDEX 01 00:16:50
  TRACK 21 AUDIO
    TITLE "Step1_Track44_21"
    INDEX 01 00:17:42
  TRACK 22 AUDIO
    TITLE "Step1_Track44_22"
    INDEX 01 00:17:62
  TRACK 23 AUDIO
    TITLE "Step1_Track44_23"
    INDEX 01 00:20:09
  TRACK 24 AUDIO
    TITLE "Step1_Track44_24"
    INDEX 01 00:20:37
  TRACK 25 AUDIO
    TITLE "Step1_Track44_25"
    INDEX 01 00:21:38
  TRACK 26 AUDIO
    TITLE "Step1_Track44_26"
    INDEX 01 00:21:58
  TRACK 27 AUDIO
    TITLE "Step1_Track44_27"
    INDEX 01 00:23:64
  TRACK 28 AUDIO
    TITLE "Step1_Track44_28"
    INDEX 01 00:23:70
  TRACK 29 AUDIO
    TITLE "Step1_Track44_29"
    INDEX 01 00:25:02
  TRACK 30 AUDIO
    TITLE "Step1_Track44_30"
    INDEX 01 00:25:16
  TRACK 31 AUDIO
    TITLE "Step1_Track44_31"
    INDEX 01 00:26:63
  TRACK 32 AUDIO
    TITLE "Step1_Track44_32"
    INDEX 01 00:27:11
  TRACK 33 AUDIO
    TITLE "Step1_Track44_33"
    INDEX 01 00:28:05
  TRACK 34 AUDIO
    TITLE "Step1_Track44_34"
    INDEX 01 00:28:26
  TRACK 35 AUDIO
    TITLE "Step1_Track44_35"
    INDEX 01 00:30:15
  TRACK 36 AUDIO
    TITLE "Step1_Track44_36"
    INDEX 01 00:30:29
  TRACK 37 AUDIO
    TITLE "Step1_Track44_37"
    INDEX 01 00:31:32
  TRACK 38 AUDIO
    TITLE "Step1_Track44_38"
    INDEX 01 00:31:48
  TRACK 39 AUDIO
    TITLE "Step1_Track44_39"
    INDEX 01 00:33:43
  TRACK 40 AUDIO
    TITLE "Step1_Track44_40"
    INDEX 01 00:33:61
  TRACK 41 AUDIO
    TITLE "Step1_Track44_41"
    INDEX 01 00:34:56
  TRACK 42 AUDIO
    TITLE "Step1_Track44_42"
    INDEX 01 00:34:64
  TRACK 43 AUDIO
    TITLE "Step1_Track44_43"
    INDEX 01 00:36:61
